# xmcd
#
# Track frame offsets:
#	150
#	12317
#	24107
#	39085
#	51592
#	62722
#	78427
#	90442
#	99602
#	111752
#	124227
#	134512
#	150002
#	166212
#	178180
#	191652
#
# Disc length: 2712 seconds
#
# Revision: 2
# Processed by: cddbd v1.5.2PL0 Copyright (c) Steve Scherf et al.
# Submitted via: audiograbber 1.83.01
#
DISCID=c40a9610
DTITLE=MH1038 Monster Hits - Female Classic Country (MH)
DYEAR=2008
DGENRE=Karaoke
TTITLE0=The Judds - Rockin' With The Rhythm Of The Rain (MH)
TTITLE1=Skeeter Davis - End Of The World (MH)
TTITLE2=Donna Fargo - Funny Face (MH)
TTITLE3=Dolly Parton - Jolene (MH)
TTITLE4=Connie Smith - Once A Day (MH)
TTITLE5=Jessi Colter - I'm Not Lisa (MH)
TTITLE6=Tammy Wynette - I Don't Wanna Play House (MH)
TTITLE7=Loretta Lynn - Don't Come Home A Drinkin' (MH)
TTITLE8=Kitty Wells - It Wasn't God Who Made Honky Tonk Angels (MH)
TTITLE9=Sammi Smith - Help Me Make It Through The Night (MH)
TTITLE10=Loretta Lynn - You Ain't Woman Enough (MH)
TTITLE11=The Judds - Why Not Me (MH)
TTITLE12=Juice Newton - Queen Of Hearts (MH)
TTITLE13=Patsy Cline - Sweet Dreams (Of You) (MH)
TTITLE14=Emmylou Harris - Two More Bottles Of Wine (MH)
TTITLE15=Donna Fargo - Happiest Girl In The Whole U.S.A. (MH)
EXTD=
EXTT0=
EXTT1=
EXTT2=
EXTT3=
EXTT4=
EXTT5=
EXTT6=
EXTT7=
EXTT8=
EXTT9=
EXTT10=
EXTT11=
EXTT12=
EXTT13=
EXTT14=
EXTT15=
PLAYORDER=
